<svg version="1.2" baseProfile="tiny-ps" xmlns="http://www.w3.org/2000/svg" viewBox="0 0 361 95" width="361" height="95">
	<title>Design</title>
	<style>
		tspan { white-space:pre }
		.shp0 { fill: #ffffff } 
	</style>
	<g id="Design">
		<path id="Shape" class="shp0" d="M8.39 0.59C12.8 0.59 16.37 4.16 16.37 8.56C16.37 12.96 12.8 16.53 8.39 16.53C3.98 16.53 0.41 12.96 0.41 8.56C0.41 4.16 3.98 0.59 8.39 0.59ZM184.91 0.59C189.32 0.59 192.91 4.16 192.91 8.56C192.91 12.96 189.32 16.53 184.91 16.53C180.49 16.53 176.91 12.96 176.91 8.56C176.91 4.16 180.49 0.59 184.91 0.59ZM352.17 0.59C356.58 0.59 360.16 4.16 360.16 8.56C360.16 12.96 356.58 16.53 352.17 16.53C347.76 16.53 344.19 12.96 344.19 8.56C344.19 4.16 347.76 0.59 352.17 0.59ZM8.39 78.59C12.8 78.59 16.37 82.16 16.37 86.56C16.37 90.96 12.8 94.53 8.39 94.53C3.98 94.53 0.41 90.96 0.41 86.56C0.41 82.16 3.98 78.59 8.39 78.59ZM184.91 78.59C189.32 78.59 192.91 82.16 192.91 86.56C192.91 90.96 189.32 94.53 184.91 94.53C180.49 94.53 176.91 90.96 176.91 86.56C176.91 82.16 180.49 78.59 184.91 78.59ZM352.17 78.59C356.58 78.59 360.16 82.16 360.16 86.56C360.16 90.96 356.58 94.53 352.17 94.53C347.76 94.53 344.19 90.96 344.19 86.56C344.19 82.16 347.76 78.59 352.17 78.59Z" />
	</g>
</svg>