<svg version="1.2" baseProfile="tiny-ps" xmlns="http://www.w3.org/2000/svg" viewBox="0 0 360 95" width="360" height="95">
	<title>Design</title>
	<style>
		tspan { white-space:pre }
		.shp0 { fill: #ffffff } 
	</style>
	<g id="Design">
		<path id="Shape" class="shp0" d="M8.36 0.53C12.77 0.53 16.34 4.09 16.34 8.48C16.34 12.88 12.77 16.44 8.36 16.44C3.95 16.44 0.37 12.88 0.37 8.48C0.37 4.09 3.95 0.53 8.36 0.53ZM184.88 0.53C189.29 0.53 192.88 4.09 192.88 8.48C192.88 12.88 189.29 16.44 184.88 16.44C180.46 16.44 176.88 12.88 176.88 8.48C176.88 4.09 180.46 0.53 184.88 0.53ZM352.14 0.53C356.55 0.53 360.13 4.09 360.13 8.48C360.13 12.88 356.55 16.44 352.14 16.44C347.73 16.44 344.16 12.88 344.16 8.48C344.16 4.09 347.73 0.53 352.14 0.53ZM8.36 78.53C12.77 78.53 16.34 82.1 16.34 86.5C16.34 90.9 12.77 94.47 8.36 94.47C3.95 94.47 0.37 90.9 0.37 86.5C0.37 82.1 3.95 78.53 8.36 78.53ZM184.88 78.53C189.29 78.53 192.88 82.1 192.88 86.5C192.88 90.9 189.29 94.47 184.88 94.47C180.46 94.47 176.88 90.9 176.88 86.5C176.88 82.1 180.46 78.53 184.88 78.53ZM352.14 78.53C356.55 78.53 360.13 82.1 360.13 86.5C360.13 90.9 356.55 94.47 352.14 94.47C347.73 94.47 344.16 90.9 344.16 86.5C344.16 82.1 347.73 78.53 352.14 78.53Z" />
	</g>
</svg>