<svg version="1.2" baseProfile="tiny-ps" xmlns="http://www.w3.org/2000/svg" viewBox="0 0 1249 1077" width="1249" height="1077">
	<title>Design</title>
	<style>
		tspan { white-space:pre }
		.shp0 { opacity: 0.039;fill: #99b7e1 } 
	</style>
	<g id="Design">
		<path id="Shape" class="shp0" d="M1060.85 0.54C1121.95 59.49 1169.71 129.38 1202.94 208.49C1218.54 245.64 1230.58 284.24 1238.78 323.4L1206.39 329.45C1198.62 292.59 1187.26 256.25 1172.56 221.24C1141.18 146.52 1096.1 80.47 1038.48 24.74L1060.85 0.54ZM49.34 693C-33.75 495.15 -8.61 265.4 114.52 90.08L141.07 109.61C24.76 275.64 1.08 493.02 79.71 680.24C176.95 911.75 407.97 1056.24 657.43 1043.08L659.91 1075.95C396.29 1090.18 152.08 937.6 49.34 693ZM865.02 993.54C1058.75 908.31 1191.64 727.37 1215.29 516.95L1248.11 519.93C1223.35 742.6 1082.69 934.1 877.6 1024.02L865.02 993.54ZM109 667.94C45.85 517.59 51 348.86 122.74 202.87L192.91 239.45C132.04 364.49 127.89 508.74 181.89 637.32C284.84 882.43 567.88 998.14 812.84 895.26C1057.79 792.38 1173.33 509.27 1070.38 264.16C1060.03 239.51 1047.64 215.7 1033.49 193.23L1099.21 149.23C1116.16 175.91 1130.96 204.21 1143.28 233.54C1263.12 518.88 1128.62 848.44 843.47 968.21C558.32 1087.97 228.84 953.27 109 667.94ZM470.96 789.39C565.69 832.84 674.08 834.77 770.43 794.3C907.08 736.91 995.51 606.21 998.59 458.88L1077.7 457.84C1075.02 637.58 967.58 797.31 801.07 867.24C683.4 916.66 550.92 913.93 435.51 860.13L470.96 789.39Z" />
	</g>
</svg>