<svg version="1.2" baseProfile="tiny-ps" xmlns="http://www.w3.org/2000/svg" viewBox="0 0 246 245" width="246" height="245">
	<title>Design</title>
	<style>
		tspan { white-space:pre }
		.shp0 { fill: #ffffff } 
	</style>
	<g id="Design">
		<path id="Shape" class="shp0" d="M113.16 0.23L0.52 198.08L0.52 245.06L8.01 245.06L147.39 0.23L113.16 0.23ZM0.52 148.69L85.04 0.23L50.8 0.23L0.52 88.55L0.52 148.69ZM175.51 0.23L36.13 245.06L70.37 245.06L209.74 0.23L175.51 0.23ZM22.68 0.23L0.52 0.23L0.52 39.16L22.68 0.23ZM223.19 245.06L245.35 245.06L245.35 206.13L223.19 245.06ZM245.35 0.23L237.86 0.23L98.49 245.06L132.72 245.06L245.35 47.2L245.35 0.23ZM245.35 96.6L160.84 245.06L195.07 245.06L245.35 156.73L245.35 96.6Z" />
	</g>
</svg>